<?xml version="1.0" encoding="UTF-8" standalone="no"?>
<!-- Generator: Adobe Illustrator 19.0.0, SVG Export Plug-In . SVG Version: 6.00 Build 0)  -->

<svg
   version="1.1"
   id="Layer_2"
   x="0px"
   y="0px"
   viewBox="0 0 499.99999 500.00001"
   enable-background="new 0 0 7127.6 2890"
   xml:space="preserve"
   inkscape:version="1.4.3 (0d15f75, 2025-12-25)"
   sodipodi:docname="neoload.svg"
   width="500"
   height="500"
   xmlns:inkscape="http://www.inkscape.org/namespaces/inkscape"
   xmlns:sodipodi="http://sodipodi.sourceforge.net/DTD/sodipodi-0.dtd"
   xmlns="http://www.w3.org/2000/svg"
   xmlns:svg="http://www.w3.org/2000/svg"
   xmlns:rdf="http://www.w3.org/1999/02/22-rdf-syntax-ns#"
   xmlns:cc="http://creativecommons.org/ns#"
   xmlns:dc="http://purl.org/dc/elements/1.1/"><metadata
     id="metadata4570"><rdf:RDF><cc:Work
         rdf:about=""><dc:format>image/svg+xml</dc:format><dc:type
           rdf:resource="http://purl.org/dc/dcmitype/StillImage" /></cc:Work></rdf:RDF></metadata><defs
     id="defs4568" /><sodipodi:namedview
     pagecolor="#ffffff"
     bordercolor="#666666"
     borderopacity="1"
     objecttolerance="10"
     gridtolerance="10"
     guidetolerance="10"
     inkscape:pageopacity="0"
     inkscape:pageshadow="2"
     inkscape:window-width="2578"
     inkscape:window-height="1186"
     id="namedview4566"
     showgrid="false"
     inkscape:zoom="1.4027286"
     inkscape:cx="494.03713"
     inkscape:cy="284.08917"
     inkscape:window-x="243"
     inkscape:window-y="25"
     inkscape:window-maximized="0"
     inkscape:current-layer="Layer_2"
     inkscape:showpageshadow="true"
     showborder="true"
     fit-margin-top="0"
     fit-margin-left="0"
     fit-margin-right="0"
     fit-margin-bottom="0"
     inkscape:pagecheckerboard="0"
     inkscape:deskcolor="#d1d1d1" /><linearGradient
     id="SVGID_1_"
     gradientUnits="userSpaceOnUse"
     x1="-4516.6152"
     y1="-2338.7222"
     x2="-4108.4111"
     y2="-1861.3982"
     gradientTransform="matrix(0.4226,-0.9063,0.9063,0.4226,5117.8774,-2859.9262)"><stop
       offset="0"
       style="stop-color:#F69923"
       id="stop4431" /><stop
       offset="0.3123"
       style="stop-color:#F79A23"
       id="stop4433" /><stop
       offset="0.8383"
       style="stop-color:#E97826"
       id="stop4435" /></linearGradient><linearGradient
     id="SVGID_2_"
     gradientUnits="userSpaceOnUse"
     x1="-7537.7339"
     y1="-2391.4075"
     x2="-4625.4141"
     y2="-2391.4075"
     gradientTransform="matrix(0.4226,-0.9063,0.9063,0.4226,5117.8774,-2859.9262)"><stop
       offset="0.3233"
       style="stop-color:#9E2064"
       id="stop4456" /><stop
       offset="0.6302"
       style="stop-color:#C92037"
       id="stop4458" /><stop
       offset="0.7514"
       style="stop-color:#CD2335"
       id="stop4460" /><stop
       offset="1"
       style="stop-color:#E97826"
       id="stop4462" /></linearGradient><linearGradient
     id="SVGID_3_"
     gradientUnits="userSpaceOnUse"
     x1="-7186.1777"
     y1="-2099.3059"
     x2="-5450.7183"
     y2="-2099.3059"
     gradientTransform="matrix(0.4226,-0.9063,0.9063,0.4226,5117.8774,-2859.9262)"><stop
       offset="0"
       style="stop-color:#282662"
       id="stop4467" /><stop
       offset="9.548390e-02"
       style="stop-color:#662E8D"
       id="stop4469" /><stop
       offset="0.7882"
       style="stop-color:#9F2064"
       id="stop4471" /><stop
       offset="0.9487"
       style="stop-color:#CD2032"
       id="stop4473" /></linearGradient><linearGradient
     id="SVGID_4_"
     gradientUnits="userSpaceOnUse"
     x1="-7374.1626"
     y1="-2418.5454"
     x2="-4461.8428"
     y2="-2418.5454"
     gradientTransform="matrix(0.4226,-0.9063,0.9063,0.4226,5117.8774,-2859.9262)"><stop
       offset="0.3233"
       style="stop-color:#9E2064"
       id="stop4478" /><stop
       offset="0.6302"
       style="stop-color:#C92037"
       id="stop4480" /><stop
       offset="0.7514"
       style="stop-color:#CD2335"
       id="stop4482" /><stop
       offset="1"
       style="stop-color:#E97826"
       id="stop4484" /></linearGradient><linearGradient
     id="SVGID_5_"
     gradientUnits="userSpaceOnUse"
     x1="-7161.7642"
     y1="-2379.1431"
     x2="-5631.2524"
     y2="-2379.1431"
     gradientTransform="matrix(0.4226,-0.9063,0.9063,0.4226,5117.8774,-2859.9262)"><stop
       offset="0"
       style="stop-color:#282662"
       id="stop4489" /><stop
       offset="9.548390e-02"
       style="stop-color:#662E8D"
       id="stop4491" /><stop
       offset="0.7882"
       style="stop-color:#9F2064"
       id="stop4493" /><stop
       offset="0.9487"
       style="stop-color:#CD2032"
       id="stop4495" /></linearGradient><linearGradient
     id="SVGID_6_"
     gradientUnits="userSpaceOnUse"
     x1="-7374.1626"
     y1="-2117.1309"
     x2="-4461.8428"
     y2="-2117.1309"
     gradientTransform="matrix(0.4226,-0.9063,0.9063,0.4226,5117.8774,-2859.9262)"><stop
       offset="0.3233"
       style="stop-color:#9E2064"
       id="stop4500" /><stop
       offset="0.6302"
       style="stop-color:#C92037"
       id="stop4502" /><stop
       offset="0.7514"
       style="stop-color:#CD2335"
       id="stop4504" /><stop
       offset="1"
       style="stop-color:#E97826"
       id="stop4506" /></linearGradient><linearGradient
     id="SVGID_7_"
     gradientUnits="userSpaceOnUse"
     x1="-7554.8232"
     y1="-2132.0981"
     x2="-4642.5034"
     y2="-2132.0981"
     gradientTransform="matrix(0.4226,-0.9063,0.9063,0.4226,5117.8774,-2859.9262)"><stop
       offset="0.3233"
       style="stop-color:#9E2064"
       id="stop4511" /><stop
       offset="0.6302"
       style="stop-color:#C92037"
       id="stop4513" /><stop
       offset="0.7514"
       style="stop-color:#CD2335"
       id="stop4515" /><stop
       offset="1"
       style="stop-color:#E97826"
       id="stop4517" /></linearGradient><linearGradient
     id="SVGID_8_"
     gradientUnits="userSpaceOnUse"
     x1="-7374.1626"
     y1="-2027.484"
     x2="-4461.8433"
     y2="-2027.484"
     gradientTransform="matrix(0.4226,-0.9063,0.9063,0.4226,5117.8774,-2859.9262)"><stop
       offset="0.3233"
       style="stop-color:#9E2064"
       id="stop4526" /><stop
       offset="0.6302"
       style="stop-color:#C92037"
       id="stop4528" /><stop
       offset="0.7514"
       style="stop-color:#CD2335"
       id="stop4530" /><stop
       offset="1"
       style="stop-color:#E97826"
       id="stop4532" /></linearGradient><linearGradient
     id="SVGID_9_"
     gradientUnits="userSpaceOnUse"
     x1="-7374.1626"
     y1="-2037.7417"
     x2="-4461.8433"
     y2="-2037.7417"
     gradientTransform="matrix(0.4226,-0.9063,0.9063,0.4226,5117.8774,-2859.9262)"><stop
       offset="0.3233"
       style="stop-color:#9E2064"
       id="stop4541" /><stop
       offset="0.6302"
       style="stop-color:#C92037"
       id="stop4543" /><stop
       offset="0.7514"
       style="stop-color:#CD2335"
       id="stop4545" /><stop
       offset="1"
       style="stop-color:#E97826"
       id="stop4547" /></linearGradient><linearGradient
     id="SVGID_10_"
     gradientUnits="userSpaceOnUse"
     x1="-5738.0635"
     y1="-2039.799"
     x2="-5094.3457"
     y2="-2039.799"
     gradientTransform="matrix(0.4226,-0.9063,0.9063,0.4226,5117.8774,-2859.9262)"><stop
       offset="0.3233"
       style="stop-color:#9E2064"
       id="stop4556" /><stop
       offset="0.6302"
       style="stop-color:#C92037"
       id="stop4558" /><stop
       offset="0.7514"
       style="stop-color:#CD2335"
       id="stop4560" /><stop
       offset="1"
       style="stop-color:#E97826"
       id="stop4562" /></linearGradient><g
     id="g1"><path
       style="fill:#94d501;fill-opacity:1;stroke:none"
       d="m 43.094359,258.29697 h 2.17179 c 22.10788,-32.47951 48.42959,-61.31909 82.528081,-81.68349 115.61359,-69.04714 260.1707,-25.69184 330.11228,86.02707 7.5277,-13.06533 0.6842,-39.94842 -2.1718,-54.29478 C 444.41981,151.50817 410.20932,100.42421 360.1759,70.195693 279.87367,21.679743 164.10743,33.281143 99.741919,104.09978 c -39.59849,43.56855 -56.64756,96.19658 -56.64756,154.19719 m 412.640351,21.71791 c -11.2919,0 -33.0986,4.2157 -42.95318,-1.56851 -19.40428,-11.38948 -33.2527,-39.32317 -52.60563,-53.38988 -33.68294,-24.48252 -70.04423,-37.31325 -110.76136,-44.09943 -56.99509,-9.49917 -119.8906,11.08599 -165.056141,45.06467 -11.86648,8.92732 -41.06052,28.98262 -41.02273,45.30599 0.0597,25.80941 11.4068,53.8252 23.52774,76.0127 68.429441,125.26062 246.578651,147.60135 341.272881,39.09224 24.75192,-28.36299 47.43562,-67.66835 47.59842,-106.41778 m 0,-4.34358 2.1718,2.17179 -2.1718,-2.17179 m -73.9012,7.9029 c 20.47795,1.27671 -11.46358,29.691 -15.14223,33.36114 -27.16552,27.10262 -55.85571,52.65805 -82.52807,80.35628 -10.98563,11.40817 -15.49407,28.19819 -34.74867,25.88052 -18.82879,-2.26643 -26.74584,-24.4643 -14.65959,-38.85096 6.93427,-8.25404 19.1039,-9.82731 27.69034,-16.16777 27.38185,-20.21947 55.28513,-39.77468 82.52808,-60.20687 8.04327,-6.03246 26.47778,-25.01962 36.86014,-24.37234 z"
       id="path1-8" /><path
       style="fill:#427935;fill-opacity:1;stroke:none"
       d="m 456.12851,279.64542 c -11.2919,0 -33.0986,4.2157 -42.95316,-1.56851 -19.40428,-11.38948 -33.2527,-39.32317 -52.60563,-53.38988 -33.68294,-24.48252 -70.04423,-37.31325 -110.76136,-44.09943 -56.99509,-9.49917 -119.8906,11.08599 -165.056141,45.06467 -11.86648,8.92732 -41.06052,28.98262 -41.02273,45.30599 0.0597,25.80941 11.4068,53.8252 23.52774,76.0127 68.429441,125.26062 246.578651,147.60135 341.272881,39.09224 24.7519,-28.36299 47.4357,-67.66835 47.5984,-106.41778 m 0,-4.34358 2.1718,2.17179 -2.1718,-2.17179 m -73.90118,7.9029 c 20.47795,1.27671 -11.46358,29.691 -15.14223,33.36114 -27.16552,27.10262 -55.85571,52.65805 -82.52807,80.35628 -10.98563,11.40817 -15.49407,28.19819 -34.74867,25.88052 -18.82879,-2.26643 -26.74584,-24.4643 -14.65959,-38.85096 6.93427,-8.25404 19.1039,-9.82731 27.69034,-16.16777 27.38185,-20.21947 55.28513,-39.77468 82.52808,-60.20687 8.04327,-6.03246 26.47778,-25.01962 36.86014,-24.37234 z"
       id="path1"
       sodipodi:nodetypes="csssssssccccssssssss" /></g></svg>
