<?xml version="1.0" encoding="UTF-8" standalone="no"?>
<svg
   xmlns:dc="http://purl.org/dc/elements/1.1/"
   xmlns:cc="http://creativecommons.org/ns#"
   xmlns:rdf="http://www.w3.org/1999/02/22-rdf-syntax-ns#"
   xmlns:svg="http://www.w3.org/2000/svg"
   xmlns="http://www.w3.org/2000/svg"
   xmlns:sodipodi="http://sodipodi.sourceforge.net/DTD/sodipodi-0.dtd"
   xmlns:inkscape="http://www.inkscape.org/namespaces/inkscape"
   viewBox="0 0 32 32"
   width="64px"
   height="64px"
   version="1.1"
   id="svg835"
   sodipodi:docname="delete.svg"
   inkscape:version="1.0.2 (e86c8708, 2021-01-15)">
  <metadata
     id="metadata841">
    <rdf:RDF>
      <cc:Work
         rdf:about="">
        <dc:format>image/svg+xml</dc:format>
        <dc:type
           rdf:resource="http://purl.org/dc/dcmitype/StillImage" />
      </cc:Work>
    </rdf:RDF>
  </metadata>
  <defs
     id="defs839" />
  <sodipodi:namedview
     pagecolor="#ffffff"
     bordercolor="#666666"
     borderopacity="1"
     objecttolerance="10"
     gridtolerance="10"
     guidetolerance="10"
     inkscape:pageopacity="0"
     inkscape:pageshadow="2"
     inkscape:window-width="1531"
     inkscape:window-height="833"
     id="namedview837"
     showgrid="false"
     inkscape:zoom="8.515625"
     inkscape:cx="32"
     inkscape:cy="37.87156"
     inkscape:window-x="865"
     inkscape:window-y="529"
     inkscape:window-maximized="0"
     inkscape:current-layer="svg835" />
  <path
     d="m 14.330642,3.2954128 c -0.514216,0 -1.039947,0.191679 -1.412178,0.5872707 -0.372233,0.3955918 -0.552592,0.9543152 -0.552592,1.5008028 V 6.4275229 H 6.4715595 V 8.5155964 H 7.4539449 V 25.220183 c 0,1.71695 1.3315929,3.13211 2.9471561,3.13211 h 11.788624 c 1.615563,0 2.947155,-1.41516 2.947155,-3.13211 V 8.5155964 h 0.982387 V 6.4275229 H 20.224954 V 5.3834863 c 0,-0.5464876 -0.180359,-1.105211 -0.552592,-1.5008028 -0.372231,-0.3955917 -0.89796,-0.5872707 -1.412178,-0.5872707 z m 0,2.0880735 h 3.929542 V 6.4275229 H 14.330642 Z M 9.4187155,8.5155964 H 23.17211 V 25.220183 c 0,0.579114 -0.437468,1.044037 -0.982385,1.044037 H 10.401101 c -0.5449165,0 -0.9823855,-0.464923 -0.9823855,-1.044037 z m 1.9647715,3.1321096 v 11.484403 h 1.96477 V 11.647706 Z m 3.929541,0 v 11.484403 h 1.96477 V 11.647706 Z m 3.929541,0 v 11.484403 h 1.96477 V 11.647706 Z"
     id="path833"
     style="fill:#d7dae0;fill-opacity:1;stroke-width:1.01274" />
</svg>
