<?xml version="1.0" encoding="UTF-8" standalone="no"?>
<svg
   xmlns:dc="http://purl.org/dc/elements/1.1/"
   xmlns:cc="http://creativecommons.org/ns#"
   xmlns:rdf="http://www.w3.org/1999/02/22-rdf-syntax-ns#"
   xmlns:svg="http://www.w3.org/2000/svg"
   xmlns="http://www.w3.org/2000/svg"
   fill="#000000"
   version="1.1"
   id="Layer_1"
   viewBox="0 0 484.34 484.34"
   xml:space="preserve"><metadata
   id="metadata933"><rdf:RDF><cc:Work
       rdf:about=""><dc:format>image/svg+xml</dc:format><dc:type
         rdf:resource="http://purl.org/dc/dcmitype/StillImage" /><dc:title></dc:title></cc:Work></rdf:RDF></metadata><defs
   id="defs931" />
<g
   id="g926"
   transform="matrix(1.7823085,0,0,1.5324512,-546.21231,31.10717)">
	<g
   id="g924">
		<g
   id="g922"><path
   d="m 313.43452,276.5785 h 173.44099 c 7.5926,0 18.88808,-5.69219 18.88808,-21.37287 v -72.41647 h 21.5734 V 60.707397 h -21.5734 V 14.947512 H 489.56084 V 60.706177 H 467.98635 V 182.78794 h 21.57449 v 72.41769 c 0,1.28461 0,2.88336 -2.79552,3.03859 H 313.08716 Z M 484.18909,164.45367 V 79.040447 h 26.94408 v 85.413223 z"
   id="path920-2"
   style="stroke-width:1.14904" />
			
			
			
			
			
			
			
			
			
			<path
   style="color:#000000;font-style:normal;font-variant:normal;font-weight:normal;font-stretch:normal;font-size:medium;line-height:normal;font-family:sans-serif;font-variant-ligatures:normal;font-variant-position:normal;font-variant-caps:normal;font-variant-numeric:normal;font-variant-alternates:normal;font-variant-east-asian:normal;font-feature-settings:normal;font-variation-settings:normal;text-indent:0;text-align:start;text-decoration:none;text-decoration-line:none;text-decoration-style:solid;text-decoration-color:#000000;letter-spacing:normal;word-spacing:normal;text-transform:none;writing-mode:lr-tb;direction:ltr;text-orientation:mixed;dominant-baseline:auto;baseline-shift:baseline;text-anchor:start;white-space:normal;shape-padding:0;shape-margin:0;inline-size:0;clip-rule:nonzero;display:inline;overflow:visible;visibility:visible;isolation:auto;mix-blend-mode:normal;color-interpolation:sRGB;color-interpolation-filters:linearRGB;solid-color:#000000;solid-opacity:1;vector-effect:none;fill:#000000;fill-opacity:1;fill-rule:nonzero;stroke-width:1.14904;stroke-linecap:butt;stroke-linejoin:miter;stroke-miterlimit:4;stroke-dasharray:none;stroke-dashoffset:0;stroke-opacity:1;color-rendering:auto;image-rendering:auto;shape-rendering:auto;text-rendering:auto;enable-background:accumulate;stop-color:#000000;stop-opacity:1;stroke:none;opacity:1"
   d="m 306.50541,237.40689 h 83.80617 c 7.5926,0 18.88808,-5.69219 18.88808,-21.37287 v -33.26351 h 21.5734 V 100.87127 95.811864 78.272594 60.68875 h -21.5734 V 14.928863 H 392.99691 V 60.687528 H 371.42242 V 182.76929 h 21.57449 v 33.26473 c 0,1.28461 0,2.88336 -2.79552,3.03859 h -83.93291 z m 81.11975,-72.97187 V 79.021794 h 26.94408 v 85.413226 z"
   id="path920" />
		<path
   d="m 371.45975,108.55369 h 70.97072 l -0.0377,-18.334293 h -70.933 z"
   id="path920-2-5"
   style="stroke-width:0.672607" /><path
   d="m 454.34357,108.55369 h 70.97072 l -0.0377,-18.334282 h -70.933 z"
   id="path920-2-5-3"
   style="stroke-width:0.672607" /></g>
	</g>
</g>
</svg>
