<?xml version="1.0" encoding="UTF-8" standalone="no"?>
<!-- Created with Inkscape (http://www.inkscape.org/) -->

<svg
   width="1024mm"
   height="1024mm"
   viewBox="0 0 1024 1024"
   version="1.1"
   id="svg1"
   xml:space="preserve"
   inkscape:version="1.4.3 (0d15f75, 2025-12-25)"
   sodipodi:docname="logo_file.svg"
   xmlns:inkscape="http://www.inkscape.org/namespaces/inkscape"
   xmlns:sodipodi="http://sodipodi.sourceforge.net/DTD/sodipodi-0.dtd"
   xmlns:xlink="http://www.w3.org/1999/xlink"
   xmlns="http://www.w3.org/2000/svg"
   xmlns:svg="http://www.w3.org/2000/svg"><sodipodi:namedview
     id="namedview1"
     pagecolor="#ffffff"
     bordercolor="#666666"
     borderopacity="1.0"
     inkscape:showpageshadow="2"
     inkscape:pageopacity="0.0"
     inkscape:pagecheckerboard="0"
     inkscape:deskcolor="#d1d1d1"
     inkscape:document-units="mm"
     showguides="true"
     inkscape:zoom="0.15889938"
     inkscape:cx="424.79713"
     inkscape:cy="770.92812"
     inkscape:window-width="3008"
     inkscape:window-height="1692"
     inkscape:window-x="0"
     inkscape:window-y="0"
     inkscape:window-maximized="0"
     inkscape:current-layer="layer1" /><defs
     id="defs1"><linearGradient
       id="linearGradient1"
       inkscape:collect="always"><stop
         style="stop-color:#818cf8;stop-opacity:1;"
         offset="0"
         id="stop1" /><stop
         style="stop-color:#06b6d4;stop-opacity:1;"
         offset="1"
         id="stop2" /></linearGradient><linearGradient
       inkscape:collect="always"
       xlink:href="#linearGradient1"
       id="linearGradient2"
       x1="111.56168"
       y1="51.618095"
       x2="752.62512"
       y2="919.13507"
       gradientUnits="userSpaceOnUse"
       gradientTransform="matrix(0.86323056,0,0,0.88092279,238.20103,52.642031)" /></defs><g
     inkscape:label="Layer 1"
     inkscape:groupmode="layer"
     id="layer1"><path
       style="fill:url(#linearGradient2);fill-opacity:1;stroke-width:4.59828"
       d="m 511.9632,884.52519 c -29.06769,-4.59439 -55.74039,-18.54823 -76.47118,-40.00593 -20.29709,-21.00887 -32.43686,-45.06076 -37.57596,-74.44752 -1.43399,-8.19983 -1.49485,-19.05191 -1.49485,-266.47145 0,-247.4195 0.0609,-258.2716 1.49485,-266.4714 5.1391,-29.38676 17.27887,-53.43868 37.57596,-74.4475 19.20206,-19.8754 42.48485,-32.76027 70.51626,-39.0242 8.27371,-1.84885 8.27371,-1.84885 174.16683,-1.84885 165.8931,0 165.8931,0 174.36938,1.87969 55.64254,12.33921 96.35024,53.80918 107.54293,109.55679 1.84153,9.17229 1.84153,9.17229 1.84153,270.35547 0,261.18322 0,261.18322 -1.84153,270.35552 -2.46204,12.26271 -5.79799,22.33573 -11.06994,33.426 -18.71286,39.36514 -52.41361,66.06314 -96.06938,76.10687 -8.07262,1.85726 -8.07262,1.85726 -171.94757,2.01296 -136.44803,0.12982 -165.07367,-0.0323 -171.03733,-0.97645 z m 331.27959,-38.28806 c 42.75468,-6.99442 75.44331,-40.50715 81.93772,-84.00337 1.81358,-12.14648 1.81358,-505.12041 0,-517.26686 -5.61103,-37.57996 -30.7053,-68.03639 -65.83423,-79.90185 -16.96308,-5.72958 -7.00627,-5.44864 -182.80387,-5.15805 -158.13015,0.2614 -158.22818,0.26254 -165.08584,1.99066 -36.99596,9.32277 -63.98596,35.81093 -74.15664,72.77768 -2.12996,7.74177 -2.12996,7.74177 -2.12996,268.92495 0,261.18322 0,261.18322 2.12996,268.92497 7.71252,28.03229 25.72063,50.92341 49.93866,63.47986 11.56357,5.99543 22.00367,9.32202 34.3088,10.9321 1.33197,0.17417 72.53281,0.37053 158.2241,0.43568 136.79209,0.10441 156.73799,-0.0323 163.4713,-1.13577 z M 662.08966,814.02036 c -31.76997,-4.38364 -60.89405,-17.29111 -84.9069,-37.62992 -35.38597,-29.9718 -56.39954,-68.21272 -61.67025,-112.22869 -1.17147,-9.78327 -0.99719,-29.86549 0.34782,-40.06378 4.77182,-36.18402 21.38318,-70.04704 46.93476,-95.6787 25.0847,-25.16335 56.22904,-40.89121 91.97874,-46.44923 11.93566,-1.85558 34.83072,-1.85558 46.76637,0 37.39084,5.81313 68.28901,22.00744 95.75213,50.18555 14.18324,14.55243 23.82531,28.00003 31.82118,44.38043 26.11211,53.49341 22.02917,116.13485 -10.79049,165.5493 -24.88109,37.46195 -62.67078,62.23993 -108.02673,70.831 -8.39994,1.59108 -39.51261,2.30362 -48.20654,1.10405 z m 44.80794,-39.75237 c 8.86693,-1.83725 19.89426,-5.42023 27.90766,-9.06772 5.83543,-2.6561 18.0286,-9.804 18.01671,-10.56173 -0.0137,-0.88123 -198.69867,-121.6175 -199.23958,-121.07334 -1.00476,1.01076 -1.12215,17.56715 -0.18261,25.7272 2.5846,22.44297 10.94046,43.95449 24.04137,61.89264 5.98444,8.19416 24.09323,26.17069 32.27166,32.03612 16.49676,11.83109 38.55746,20.3625 59.16032,22.87863 7.0275,0.85822 30.49844,-0.27259 38.02424,-1.8318 z m 74.11843,-63.15664 c 3.56967,-5.98872 6.7091,-11.46426 6.97651,-12.1678 0.37849,-0.99571 -21.80322,-14.76002 -100.11324,-62.12271 -55.32969,-33.46395 -101.04014,-60.66772 -101.57872,-60.45284 -0.53858,0.21482 -3.831,5.43945 -7.31656,11.61011 -4.87653,8.63335 -6.08604,11.3708 -5.24719,11.87606 0.59954,0.36128 45.77224,27.96622 100.38377,61.34464 54.61153,33.37847 99.54377,60.71351 99.84944,60.74465 0.30572,0.0323 3.47635,-4.84337 7.04599,-10.83211 z m 26.46917,-63.88067 c -0.46919,-17.00781 -1.51614,-23.62228 -5.90137,-37.28278 -3.09168,-9.63099 -10.86055,-25.01942 -17.06343,-33.79884 -7.02078,-9.93712 -23.54294,-26.60485 -33.3262,-33.61983 -14.14214,-10.14048 -32.24296,-17.9934 -49.65583,-21.54288 -10.24971,-2.08927 -36.51312,-2.08927 -46.76285,0 -15.31855,3.12254 -31.60108,9.60608 -43.28309,17.23483 -4.42414,2.8891 -5.60399,4.02407 -4.73086,4.55074 0.63981,0.38578 45.66376,27.6486 100.05328,60.58374 54.38953,32.93507 99.3905,59.90176 100.00217,59.92588 0.92297,0.037 1.0366,-2.69373 0.66818,-16.05086 z M 555.04892,431.86111 c -33.44277,-3.99344 -61.0037,-30.51249 -66.18416,-63.68222 -0.65465,-4.19153 -0.84677,-20.76463 -0.64549,-55.6783 0.28192,-48.93808 0.31487,-49.80447 2.11847,-55.76748 8.65705,-28.62449 30.30421,-49.05603 58.03347,-54.77447 7.16146,-1.47689 12.65405,-1.53071 134.82145,-1.32113 127.35586,0.21848 127.35586,0.21848 134.45037,2.46499 27.68953,8.76809 47.16714,29.80773 53.73496,58.04442 1.15866,4.98151 1.32997,12.12009 1.32997,55.42832 0,49.55568 -0.004,49.73315 -1.89724,57.04463 -8.23106,31.81958 -33.3538,54.27073 -65.10582,58.18237 -8.42643,1.03808 -241.99619,1.09297 -250.65598,0.0587 z m 257.953,-41.87893 c 8.45453,-4.21829 14.02397,-9.85377 17.95821,-18.17114 2.99906,-6.34037 2.99906,-6.34037 2.99906,-55.64329 0,-49.30292 0,-49.30292 -3.00143,-55.5008 -5.11214,-10.55633 -15.26383,-18.66508 -26.30168,-21.00869 -3.03513,-0.64444 -39.2765,-0.90831 -124.75475,-0.90831 -131.25086,0 -124.52152,-0.22966 -133.90438,4.57012 -5.35968,2.74168 -12.76649,10.2188 -15.48245,15.62928 -4.45063,8.86619 -4.52797,9.85234 -4.51758,57.59336 0.009,46.90272 0.0934,48.06033 4.05668,56.32466 2.29778,4.79167 9.68619,12.85472 14.25696,15.55872 1.95248,1.15511 5.62147,2.77175 8.15325,3.59255 4.38962,1.42306 10.39402,1.4846 129.36794,1.32586 124.76472,-0.16632 124.76472,-0.16632 131.17017,-3.36232 z"
       id="path1" /></g></svg>
