<?xml version="1.0" encoding="UTF-8" standalone="no"?>
<!-- Created with Inkscape (http://www.inkscape.org/) -->

<svg
   width="1024mm"
   height="1024mm"
   viewBox="0 0 1024 1024"
   version="1.1"
   id="svg1"
   xml:space="preserve"
   inkscape:version="1.4.3 (0d15f75, 2025-12-25)"
   sodipodi:docname="icon.svg"
   xmlns:inkscape="http://www.inkscape.org/namespaces/inkscape"
   xmlns:sodipodi="http://sodipodi.sourceforge.net/DTD/sodipodi-0.dtd"
   xmlns="http://www.w3.org/2000/svg"
   xmlns:svg="http://www.w3.org/2000/svg"><sodipodi:namedview
     id="namedview1"
     pagecolor="#ffffff"
     bordercolor="#666666"
     borderopacity="1.0"
     inkscape:showpageshadow="2"
     inkscape:pageopacity="0.0"
     inkscape:pagecheckerboard="0"
     inkscape:deskcolor="#d1d1d1"
     inkscape:document-units="mm"
     showguides="true"
     inkscape:zoom="0.15889938"
     inkscape:cx="427.94376"
     inkscape:cy="767.78146"
     inkscape:window-width="2967"
     inkscape:window-height="1639"
     inkscape:window-x="0"
     inkscape:window-y="25"
     inkscape:window-maximized="0"
     inkscape:current-layer="layer1" /><defs
     id="defs1" /><g
     inkscape:label="Layer 1"
     inkscape:groupmode="layer"
     id="layer1"><path
       style="fill:#000000;stroke-width:5.27307"
       d="m 317.13679,944.33152 c -33.67315,-5.21543 -64.57185,-21.05545 -88.5872,-45.41367 -23.51295,-23.8487 -37.57613,-51.15177 -43.52946,-84.51083 -1.66119,-9.30823 -1.7317,-21.62721 -1.7317,-302.49126 0,-280.864 0.0705,-293.18302 1.7317,-302.49122 5.95333,-33.35906 20.01651,-60.66215 43.52946,-84.5108 22.24441,-22.56203 49.21611,-37.188579 81.68879,-44.299233 9.58459,-2.098764 9.58459,-2.098764 201.76165,-2.098764 192.17705,0 192.17705,0 201.9963,2.133771 64.4585,14.00714 111.61589,61.082746 124.58193,124.365936 2.13331,10.41215 2.13331,10.41215 2.13331,306.90031 0,296.4882 0,296.4882 -2.13331,306.90036 -2.85212,13.92029 -6.71661,25.35492 -12.82385,37.9443 -21.6777,44.68625 -60.71797,74.99311 -111.29052,86.39448 -9.35164,2.10831 -9.35164,2.10831 -199.19078,2.28506 -158.06672,0.14737 -191.22778,-0.0367 -198.13632,-1.10844 z M 700.904,900.86794 c 49.5287,-7.93989 87.39648,-45.98264 94.91986,-95.35839 2.10092,-13.78835 2.10092,-573.39917 0,-587.1875 -6.50004,-42.65976 -35.57022,-77.23309 -76.26495,-90.70244 -19.65069,-6.50407 -8.11633,-6.18515 -211.76714,-5.85529 -183.18414,0.29674 -183.2977,0.29804 -191.24188,2.25974 -42.85757,10.58297 -74.12384,40.65162 -85.90595,82.61528 -2.46743,8.78826 -2.46743,8.78826 -2.46743,305.27642 0,296.4882 0,296.4882 2.46743,305.27643 8.93449,31.82151 29.79578,57.8069 57.85089,72.06065 13.3957,6.80585 25.48992,10.5821 39.74466,12.40982 1.54301,0.19772 84.02484,0.42062 183.29298,0.49457 158.4653,0.11853 181.5714,-0.0367 189.37153,-1.28929 z M 491.04914,864.29632 c -36.80357,-4.97619 -70.54204,-19.6284 -98.35947,-42.71648 -40.99248,-34.02318 -65.33542,-77.43325 -71.44122,-127.39901 -1.35708,-11.1057 -1.15519,-33.9025 0.40293,-45.47932 5.52786,-41.07514 24.77111,-79.51554 54.37105,-108.61191 29.0591,-28.56476 65.13792,-46.41861 106.55177,-52.72792 13.82673,-2.10641 40.34927,-2.10641 54.17599,0 43.31501,6.5989 79.10865,24.98225 110.92301,56.96929 16.43041,16.51953 27.60017,31.78489 36.86289,50.37948 30.24929,60.72429 25.51945,131.83317 -12.50012,187.92714 -28.82323,42.52581 -72.60028,70.6531 -125.14238,80.40545 -9.73082,1.80616 -45.77295,2.61502 -55.84434,1.25329 z m 51.90727,-45.12582 c 10.2718,-2.0856 23.04629,-6.15291 32.32932,-10.29344 6.75999,-3.01513 20.88504,-11.12924 20.87126,-11.98939 -0.0159,-1.00035 -230.1803,-138.05694 -230.80691,-137.43923 -1.16395,1.1474 -1.29994,19.94177 -0.21154,29.20484 2.9941,25.47666 12.67386,49.89596 27.85046,70.25886 6.93261,9.30179 27.91054,29.70828 37.38475,36.36655 19.11049,13.43034 44.66647,23.11497 68.53363,25.97121 8.14093,0.97423 35.33058,-0.30943 44.04877,-2.0794 z m 85.86168,-71.69373 c 4.13525,-6.79824 7.77209,-13.01393 8.08187,-13.81257 0.43845,-1.1303 -25.2577,-16.75518 -115.97509,-70.52004 -64.09608,-37.98737 -117.04885,-68.86837 -117.67276,-68.62445 -0.62391,0.24387 -4.43798,6.17472 -8.47579,13.1795 -5.64916,9.80034 -7.0503,12.90783 -6.07855,13.48138 0.69453,0.41012 53.02435,31.74651 116.28848,69.6368 63.26413,37.89034 115.31539,68.92035 115.6695,68.9557 0.35415,0.0367 4.02714,-5.49807 8.16234,-12.29632 z m 30.66293,-72.51564 c -0.54353,-19.30681 -1.75636,-26.81538 -6.83638,-42.32241 -3.58153,-10.93284 -12.58129,-28.40138 -19.76695,-38.36754 -8.13314,-11.28035 -27.27306,-30.20111 -38.60637,-38.16432 -16.3828,-11.51121 -37.3515,-20.42564 -57.52325,-24.45492 -11.87367,-2.37168 -42.29823,-2.37168 -54.17191,0 -17.74561,3.54463 -36.60793,10.90458 -50.14083,19.56453 -5.12509,3.27963 -6.49188,4.56801 -5.48041,5.16588 0.74118,0.43792 52.89869,31.38595 115.90563,68.77303 63.00695,37.38702 115.13784,67.99888 115.84642,68.02626 1.0692,0.042 1.20084,-3.05784 0.77405,-18.22051 z M 367.04897,430.47935 c -38.74141,-4.53324 -70.66907,-34.63695 -76.67032,-72.29034 -0.75837,-4.75812 -0.98093,-23.57146 -0.74776,-63.20452 0.32659,-55.55321 0.36476,-56.53671 2.45412,-63.30575 10.02867,-32.49376 35.10558,-55.6871 67.22824,-62.17852 8.29611,-1.67652 14.65894,-1.73761 156.18243,-1.49972 147.53401,0.24803 147.53401,0.24803 155.75256,2.79821 32.07664,9.95329 54.64026,33.83693 62.24868,65.89047 1.34224,5.65488 1.54069,13.75839 1.54069,62.92074 0,56.25429 -0.005,56.45574 -2.19784,64.75554 -9.53518,36.12073 -38.63834,61.60668 -75.42112,66.04707 -9.76151,1.1784 -280.33784,1.24071 -290.36968,0.0666 z M 665.8718,382.93951 c 9.79406,-4.78848 16.24591,-11.18573 20.80349,-20.62739 3.47423,-7.19741 3.47423,-7.19741 3.47423,-63.16477 0,-55.96736 0,-55.96736 -3.47698,-63.00303 -5.9221,-11.98326 -17.68221,-21.18809 -30.46889,-23.8485 -3.51601,-0.73155 -45.49943,-1.03108 -144.52077,-1.03108 -152.04612,0 -144.2506,-0.26071 -155.12007,5.18788 -6.20886,3.11227 -14.7892,11.6001 -17.93547,17.74194 -5.15578,10.06465 -5.24538,11.1841 -5.23334,65.37844 0.0106,53.24271 0.10815,54.55679 4.69941,63.93824 2.66184,5.43937 11.22086,14.59233 16.51582,17.66185 2.26183,1.31124 6.51213,3.14642 9.44505,4.07816 5.08511,1.61542 12.04083,1.68528 149.86487,1.50508 144.53233,-0.1888 144.53233,-0.1888 151.95265,-3.81682 z"
       id="path1" /></g></svg>
