<?xml version="1.0" encoding="UTF-8" standalone="no"?>
<svg
   xmlns:dc="http://purl.org/dc/elements/1.1/"
   xmlns:cc="http://creativecommons.org/ns#"
   xmlns:rdf="http://www.w3.org/1999/02/22-rdf-syntax-ns#"
   xmlns:svg="http://www.w3.org/2000/svg"
   xmlns="http://www.w3.org/2000/svg"
   xmlns:sodipodi="http://sodipodi.sourceforge.net/DTD/sodipodi-0.dtd"
   xmlns:inkscape="http://www.inkscape.org/namespaces/inkscape"
   width="800px"
   height="800px"
   viewBox="0 -31.5 256 256"
   version="1.1"
   preserveAspectRatio="xMidYMid"
   id="svg837"
   sodipodi:docname="websocket.svg"
   inkscape:version="1.0.2 (e86c8708, 2021-01-15)">
  <metadata
     id="metadata843">
    <rdf:RDF>
      <cc:Work
         rdf:about="">
        <dc:format>image/svg+xml</dc:format>
        <dc:type
           rdf:resource="http://purl.org/dc/dcmitype/StillImage" />
      </cc:Work>
    </rdf:RDF>
  </metadata>
  <defs
     id="defs841" />
  <sodipodi:namedview
     pagecolor="#ffffff"
     bordercolor="#666666"
     borderopacity="1"
     objecttolerance="10"
     gridtolerance="10"
     guidetolerance="10"
     inkscape:pageopacity="0"
     inkscape:pageshadow="2"
     inkscape:window-width="1861"
     inkscape:window-height="857"
     id="namedview839"
     showgrid="false"
     inkscape:zoom="0.68125"
     inkscape:cx="400"
     inkscape:cy="400"
     inkscape:window-x="0"
     inkscape:window-y="25"
     inkscape:window-maximized="0"
     inkscape:current-layer="svg837" />
  <g
     id="g835"
     style="fill:#ff6600">
    <path
       d="M192.440223,144.644612 L224.220111,144.644612 L224.220111,68.3393384 L188.415329,32.5345562 L165.943007,55.0068785 L192.440223,81.5040943 L192.440223,144.644612 L192.440223,144.644612 Z M224.303963,160.576482 L178.017688,160.576482 L113.451687,160.576482 L86.954471,134.079266 L98.1906322,122.843105 L120.075991,144.728464 L165.104487,144.728464 L120.746806,100.286931 L132.06682,88.9669178 L176.4245,133.324599 L176.4245,88.2961022 L154.622994,66.4945955 L165.775303,55.3422863 L110.684573,0 L56.3485097,0 L56.3485097,0 L0,0 L31.6960367,31.6960367 L31.6960367,31.7798886 L31.8637406,31.7798886 L97.4359646,31.7798886 L120.662954,55.0068785 L86.7029152,88.9669178 L63.4759253,65.7399279 L63.4759253,47.7117589 L31.6960367,47.7117589 L31.6960367,78.9046839 L86.7029152,133.911562 L64.3144448,156.300033 L100.119227,192.104815 L154.45529,192.104815 L256,192.104815 L256,192.104815 L224.303963,160.576482 L224.303963,160.576482 Z"
       fill="#231F20"
       id="path833"
       style="fill:#ff6600" />
  </g>
</svg>
