<?xml version="1.0" encoding="UTF-8" standalone="no"?>
<svg
   xmlns:dc="http://purl.org/dc/elements/1.1/"
   xmlns:cc="http://creativecommons.org/ns#"
   xmlns:rdf="http://www.w3.org/1999/02/22-rdf-syntax-ns#"
   xmlns:svg="http://www.w3.org/2000/svg"
   xmlns="http://www.w3.org/2000/svg"
   xmlns:sodipodi="http://sodipodi.sourceforge.net/DTD/sodipodi-0.dtd"
   xmlns:inkscape="http://www.inkscape.org/namespaces/inkscape"
   fill="#000000"
   width="800px"
   height="800px"
   viewBox="0 0 32 32"
   id="icon"
   version="1.1"
   sodipodi:docname="http.svg"
   inkscape:version="1.0.2 (e86c8708, 2021-01-15)">
  <metadata
     id="metadata851">
    <rdf:RDF>
      <cc:Work
         rdf:about="">
        <dc:format>image/svg+xml</dc:format>
        <dc:type
           rdf:resource="http://purl.org/dc/dcmitype/StillImage" />
      </cc:Work>
    </rdf:RDF>
  </metadata>
  <sodipodi:namedview
     pagecolor="#ffffff"
     bordercolor="#666666"
     borderopacity="1"
     objecttolerance="10"
     gridtolerance="10"
     guidetolerance="10"
     inkscape:pageopacity="0"
     inkscape:pageshadow="2"
     inkscape:window-width="2330"
     inkscape:window-height="997"
     id="namedview849"
     showgrid="false"
     inkscape:zoom="0.68125"
     inkscape:cx="238.53211"
     inkscape:cy="394.12844"
     inkscape:window-x="0"
     inkscape:window-y="25"
     inkscape:window-maximized="0"
     inkscape:current-layer="icon" />
  <defs
     id="defs835">
    <style
       id="style833">.cls-1{fill:none;}</style>
  </defs>
  <title
     id="title837">HTTP</title>
  <path
     d="M 24.569008,16.959806 H 16.77551 v 13.076393 h 3.117398 v -3.922918 h 4.6761 a 3.121608,2.6188095 0 0 0 3.1174,-2.615279 v -3.922917 a 3.1209846,2.6182864 0 0 0 -3.1174,-2.615279 z m -4.6761,6.538196 v -3.922917 h 4.6761 l 0.0015,3.922917 z"
     id="path839"
     style="fill:#9955ff;stroke-width:1.42767" />
  <polygon
     points="23,13 23,11 17,11 17,13 19,13 19,21 21,21 21,13 "
     id="polygon843"
     style="fill:#9955ff"
     transform="matrix(1.8236805,0,0,1.3076395,-26.805494,2.5757708)" />
  <polygon
     points="6,17 6,21 8,21 8,11 6,11 6,15 3,15 3,11 1,11 1,21 3,21 3,17 "
     id="polygon845"
     style="fill:#9955ff"
     transform="matrix(1.5586997,0,0,1.3076395,2.6695595,-12.22799)" />
  <rect
     id="_Transparent_Rectangle_"
     data-name="&lt;Transparent Rectangle&gt;"
     class="cls-1"
     width="26.950459"
     height="28.711927"
     x="2.5247707"
     y="1.6440367"
     style="stroke-width:0.869289" />
  <polygon
     points="21,21 21,13 23,13 23,11 17,11 17,13 19,13 19,21 "
     id="polygon843-8"
     style="fill:#9955ff"
     transform="matrix(1.8236805,0,0,1.3076395,-14.22706,-12.22799)" />
</svg>
